<svg width="90" height="20" viewBox="0 0 90 20" fill="none" xmlns="http://www.w3.org/2000/svg">
<path d="M31.7683 11.5194L31.2319 13.1008H31.1872C31.0978 12.7442 30.9339 12.2016 30.6657 11.5504L27.7899 4.03106H24.9736V16.0156H26.8362V8.62021C26.8362 8.15509 26.8362 7.62796 26.8213 6.9768C26.8064 6.65122 26.7766 6.40315 26.7617 6.21711H26.8064C26.8958 6.68222 27.0001 7.02331 27.0746 7.24036L30.5316 15.9846H31.8428L35.27 7.16285C35.3445 6.96129 35.419 6.55819 35.4935 6.21711H35.5382C35.4935 7.10083 35.4637 7.89153 35.4488 8.37215V15.969H37.4306V4.00005H34.7187L31.7683 11.5194ZM39.3081 7.3799H41.2452V15.969H39.3081V7.3799ZM40.2915 3.75199C39.9637 3.75199 39.6955 3.87602 39.472 4.09308C39.2485 4.31013 39.1293 4.5892 39.1293 4.93029C39.1293 5.25587 39.2485 5.53494 39.472 5.75199C39.6955 5.96905 39.9637 6.07757 40.2915 6.07757C40.6193 6.07757 40.9024 5.95354 41.111 5.75199C41.3346 5.53494 41.4538 5.25587 41.4538 4.93029C41.4538 4.60471 41.3346 4.32564 41.111 4.09308C40.9173 3.87602 40.6342 3.75199 40.2915 3.75199ZM48.1144 7.30238C47.7567 7.22486 47.3842 7.17835 47.0266 7.17835C46.1475 7.17835 45.3428 7.3799 44.6723 7.783C44.0018 8.1861 43.4654 8.74424 43.1226 9.44192C42.765 10.1551 42.5862 10.9768 42.5862 11.9225C42.5862 12.7442 42.765 13.4729 43.1077 14.1396C43.4505 14.7908 43.9273 15.3179 44.568 15.6745C45.1789 16.0311 45.8942 16.2171 46.6988 16.2171C47.6226 16.2171 48.4124 16.0156 49.0382 15.6435L49.0531 15.628V13.7675L48.9786 13.8295C48.6955 14.0466 48.3677 14.2326 48.0399 14.3411C47.6971 14.4652 47.3842 14.5272 47.116 14.5272C46.3412 14.5272 45.7303 14.2946 45.2981 13.783C44.8511 13.2869 44.6276 12.6047 44.6276 11.752C44.6276 10.8683 44.8511 10.1706 45.313 9.65897C45.775 9.14734 46.3859 8.88377 47.1309 8.88377C47.7567 8.88377 48.3975 9.10083 48.9786 9.53494L49.0531 9.59695V7.62796L49.0382 7.61246C48.7849 7.50393 48.5018 7.3799 48.1144 7.30238ZM54.5067 7.24036C54.0299 7.24036 53.5829 7.3954 53.1955 7.72098C52.8677 8.00005 52.6442 8.40315 52.4505 8.88377H52.4356V7.3799H50.4985V15.969H52.4356V11.5814C52.4356 10.8373 52.5846 10.2171 52.9124 9.7675C53.2402 9.30238 53.6574 9.06982 54.164 9.06982C54.3428 9.06982 54.5216 9.11633 54.7452 9.14734C54.9538 9.20936 55.1028 9.27137 55.2071 9.34889L55.2816 9.41091V7.3954L55.2369 7.3799C55.1028 7.28688 54.8346 7.24036 54.5067 7.24036ZM59.7816 7.19385C58.4256 7.19385 57.3379 7.61246 56.5779 8.43416C55.8031 9.25587 55.4306 10.3877 55.4306 11.814C55.4306 13.1473 55.818 14.2326 56.563 15.0233C57.3081 15.7985 58.3213 16.2016 59.5879 16.2016C60.914 16.2016 61.972 15.783 62.7319 14.9458C63.5067 14.1086 63.8793 12.9923 63.8793 11.6125C63.8793 10.2481 63.5216 9.16285 62.7915 8.37215C62.0912 7.58145 61.063 7.19385 59.7816 7.19385ZM61.3313 13.7985C60.9736 14.2791 60.4074 14.5117 59.7071 14.5117C59.0067 14.5117 58.4405 14.2791 58.0382 13.7675C57.6359 13.2869 57.4422 12.5892 57.4422 11.7055C57.4422 10.7908 57.6508 10.0931 58.0382 9.59695C58.4405 9.10083 58.9918 8.85277 59.6922 8.85277C60.3776 8.85277 60.914 9.08533 61.3014 9.56595C61.6889 10.0466 61.8975 10.7442 61.8975 11.659C61.8677 12.5892 61.7038 13.3179 61.3313 13.7985ZM68.2005 10.9458C67.5895 10.6822 67.2021 10.4807 67.0233 10.3101C66.8743 10.1551 66.7998 9.93804 66.7998 9.65897C66.7998 9.42641 66.8892 9.19385 67.1127 9.03881C67.3362 8.88377 67.5895 8.80626 67.962 8.80626C68.2899 8.80626 68.6326 8.86827 68.9604 8.96129C69.2882 9.05432 69.5862 9.19385 69.8246 9.3799L69.8991 9.44192V7.55044L69.8544 7.53494C69.6309 7.44191 69.3329 7.34889 68.9753 7.27137C68.6177 7.20936 68.2899 7.17835 68.0216 7.17835C67.0978 7.17835 66.3379 7.41091 65.7418 7.92253C65.1458 8.40315 64.8627 9.05432 64.8627 9.81401C64.8627 10.2171 64.9223 10.5737 65.0564 10.8683C65.1905 11.1628 65.3842 11.4419 65.6524 11.6745C65.9207 11.8915 66.3081 12.1396 66.8445 12.3721C67.2915 12.5737 67.6342 12.7287 67.8428 12.8528C68.0514 12.9768 68.1856 13.1163 68.2899 13.2249C68.3644 13.3489 68.4091 13.5039 68.4091 13.7055C68.4091 14.2791 67.9918 14.5582 67.1425 14.5582C66.8147 14.5582 66.472 14.4962 66.0697 14.3566C65.6673 14.2171 65.2948 14.0156 64.9819 13.783L64.9074 13.721V15.69L64.9521 15.7055C65.2352 15.845 65.5779 15.938 65.9952 16.0466C66.4124 16.1241 66.7849 16.1861 67.1127 16.1861C68.1111 16.1861 68.9306 15.9535 69.5117 15.4419C70.1077 14.9458 70.4207 14.3101 70.4207 13.4884C70.4207 12.9148 70.2716 12.4032 69.9438 12.0156C69.5117 11.6435 68.9753 11.2559 68.2005 10.9458ZM75.5316 7.19385C74.1756 7.19385 73.0879 7.61246 72.3279 8.43416C71.568 9.25587 71.1806 10.3877 71.1806 11.814C71.1806 13.1473 71.568 14.2326 72.313 15.0233C73.0581 15.7985 74.0713 16.2016 75.3379 16.2016C76.664 16.2016 77.722 15.783 78.4819 14.9458C79.2568 14.1086 79.6293 12.9923 79.6293 11.6125C79.6293 10.2481 79.2716 9.16285 78.5415 8.37215C77.8412 7.58145 76.813 7.19385 75.5316 7.19385ZM77.0664 13.7985C76.7087 14.2791 76.1425 14.5117 75.4422 14.5117C74.7269 14.5117 74.1756 14.2791 73.7733 13.7675C73.371 13.2869 73.1773 12.5892 73.1773 11.7055C73.1773 10.7908 73.3859 10.0931 73.7733 9.59695C74.1756 9.10083 74.7269 8.85277 75.4273 8.85277C76.0978 8.85277 76.6491 9.08533 77.0365 9.56595C77.424 10.0466 77.6326 10.7442 77.6326 11.659C77.6326 12.5892 77.4389 13.3179 77.0664 13.7985ZM89.9852 9.03881V7.3799H88.0332V4.83726L87.9736 4.85277L86.126 5.42641L86.0813 5.44191V7.3799H83.1607V6.29463C83.1607 5.7985 83.2799 5.41091 83.4885 5.16284C83.6971 4.91478 84.0101 4.79075 84.3975 4.79075C84.6657 4.79075 84.9488 4.85277 85.2617 4.9923L85.3362 5.03881V3.28688L85.2915 3.27137C85.0233 3.17835 84.6657 3.11633 84.2038 3.11633C83.6226 3.11633 83.116 3.25587 82.6541 3.48843C82.1922 3.75199 81.8495 4.10858 81.5961 4.5892C81.3428 5.05432 81.2087 5.58145 81.2087 6.1861V7.3799H79.8528V9.02331H81.2087V15.969H83.1607V9.03881H86.0813V13.4574C86.0813 15.2714 86.9008 16.1861 88.5399 16.1861C88.8081 16.1861 89.0912 16.1396 89.3594 16.0931C89.6425 16.0311 89.8511 15.9535 89.9703 15.8915L89.9852 15.876V14.2171L89.9107 14.2791C89.7915 14.3566 89.6872 14.4187 89.5084 14.4652C89.3594 14.5117 89.2253 14.5272 89.121 14.5272C88.7336 14.5272 88.4654 14.4342 88.2717 14.2016C88.0928 13.9846 88.0034 13.628 88.0034 13.1008V9.03881H89.9852Z" fill="#737373"/>
<path d="M0 0L9.13411 0V9.50388H0L0 0Z" fill="#F25022"/>
<path d="M10.0879 0L19.222 0V9.50388H10.0879V0Z" fill="#7FBA00"/>
<path d="M0 10.4961H9.13411V20H0L0 10.4961Z" fill="#00A4EF"/>
<path d="M10.0879 10.4961H19.222V20H10.0879V10.4961Z" fill="#FFB900"/>
</svg>
