<svg width="155" height="219" viewBox="0 0 155 219" fill="none" xmlns="http://www.w3.org/2000/svg">
<path d="M151.703 33.3189L110.933 71.4989C105.503 76.5889 96.6331 72.5689 96.8831 65.1289L98.7231 9.30892C98.8931 4.23892 103.483 0.538922 108.493 1.34892C123.913 3.84892 138.783 10.3589 151.393 20.8389C155.223 24.0389 155.353 29.9089 151.703 33.3189Z" fill="#404099"/>
<path d="M33.7628 143.75L74.5328 105.57C79.9628 100.48 76.5328 91.3695 69.1028 91.1295L13.2828 89.2995C8.21277 89.1295 4.22277 93.4795 4.70277 98.5195C6.18277 114.069 11.7028 129.34 21.3328 142.61C24.2728 146.66 30.1228 147.17 33.7628 143.75Z" fill="#404099"/>
<path d="M40.3523 29.6689L78.5323 70.4389C83.6223 75.8689 92.7323 72.4389 92.9723 65.0089L94.8023 9.1889C94.9723 4.1189 90.6223 0.128901 85.5823 0.608901C70.0223 2.0789 54.7623 7.5989 41.4923 17.2289C37.4423 20.1689 36.9323 26.0189 40.3523 29.6689Z" fill="#404099"/>
<path d="M24.9523 32.7189C14.4723 45.3289 7.95232 60.2089 5.45232 75.6289C4.64232 80.6289 8.34232 85.2289 13.4123 85.3989L69.2423 87.2289C76.6823 87.4689 80.6923 78.6089 75.6123 73.1789L37.4323 32.3989C34.0123 28.7489 28.1423 28.8689 24.9523 32.7189Z" fill="#404099"/>
<path d="M3.09774 186.115L43.8677 147.935C49.2977 142.845 58.1677 146.865 57.9177 154.305L56.0777 210.125C55.9077 215.195 51.3177 218.895 46.3077 218.085C30.8877 215.585 16.0177 209.075 3.40774 198.595C-0.422261 195.395 -0.552261 189.525 3.09774 186.115Z" fill="#404099"/>
<path d="M121.038 75.6845L80.2679 113.865C74.8379 118.955 78.2679 128.065 85.6979 128.305L141.518 130.135C146.588 130.305 150.578 125.955 150.098 120.915C148.618 105.365 143.098 90.0945 133.468 76.8245C130.528 72.7745 124.688 72.2645 121.038 75.6845Z" fill="#404099"/>
<path d="M114.448 189.774L76.268 148.994C71.178 143.564 62.068 146.994 61.828 154.424L59.998 210.244C59.828 215.314 64.178 219.304 69.218 218.824C84.768 217.344 100.038 211.824 113.308 202.194C117.358 199.264 117.868 193.414 114.448 189.774Z" fill="#404099"/>
<path d="M129.848 186.714C140.328 174.104 146.848 159.224 149.348 143.804C150.158 138.804 146.458 134.204 141.388 134.034L85.5579 132.204C78.1179 131.964 74.1079 140.824 79.1879 146.254L117.368 187.024C120.788 190.684 126.658 190.564 129.848 186.714Z" fill="#404099"/>
</svg>
