<svg width="207" height="23" viewBox="0 0 207 23" fill="none" xmlns="http://www.w3.org/2000/svg">
<path d="M30.3616 1.90359L30.3616 19.2731L26.621 19.2731L26.621 1.90359L30.3616 1.90359ZM35.9662 1.90359L35.9662 4.70705L21.104 4.70705L21.104 1.90359L35.9662 1.90359Z" fill="white"/>
<path d="M43.0487 19.5117C41.9979 19.5117 41.0554 19.3527 40.2214 19.0345C39.3874 18.7085 38.6785 18.2591 38.0947 17.6865C37.5192 17.1139 37.0772 16.4498 36.7686 15.6942C36.46 14.9307 36.3057 14.1195 36.3057 13.2606L36.3057 12.7834C36.3057 11.8052 36.4517 10.9105 36.7436 10.0992C37.0355 9.28803 37.4525 8.58418 37.9946 7.9877C38.545 7.39122 39.2123 6.93391 39.9962 6.61579C40.7802 6.28971 41.6643 6.12668 42.6484 6.12668C43.6075 6.12668 44.4582 6.27778 45.2005 6.58C45.9427 6.88222 46.5641 7.31169 47.0645 7.8684C47.5732 8.42512 47.9569 9.09318 48.2154 9.87258C48.474 10.644 48.6032 11.503 48.6032 12.4494L48.6032 13.8809L37.8445 13.8809L37.8445 11.5904L45.0629 11.5904L45.0629 11.328C45.0629 10.8508 44.9711 10.4253 44.7876 10.0515C44.6125 9.66977 44.3456 9.36756 43.987 9.14487C43.6284 8.92218 43.1697 8.81084 42.6109 8.81084C42.1355 8.81084 41.7268 8.91025 41.3849 9.10908C41.0429 9.30791 40.7635 9.58627 40.5467 9.94416C40.3382 10.302 40.1797 10.7236 40.0713 11.2087C39.9712 11.6859 39.9212 12.2108 39.9212 12.7834L39.9212 13.2606C39.9212 13.7775 39.9962 14.2547 40.1464 14.6921C40.3048 15.1296 40.5258 15.5073 40.8094 15.8255C41.1013 16.1436 41.4516 16.3901 41.8602 16.5651C42.2773 16.7401 42.7485 16.8275 43.2739 16.8275C43.9244 16.8275 44.5291 16.7083 45.0879 16.4697C45.655 16.2231 46.1429 15.8533 46.5516 15.3602L48.303 17.1735C48.0194 17.5632 47.6316 17.937 47.1396 18.2949C46.6558 18.6528 46.072 18.947 45.3881 19.1777C44.7042 19.4004 43.9244 19.5117 43.0487 19.5117Z" fill="white"/>
<path d="M56.3614 16.8275C56.8034 16.8275 57.1954 16.748 57.5373 16.589C57.8793 16.4219 58.1462 16.1913 58.338 15.897C58.5381 15.5948 58.6424 15.2409 58.6507 14.8353L62.041 14.8353C62.0327 15.742 61.7783 16.5492 61.2779 17.257C60.7775 17.9569 60.1061 18.5096 59.2637 18.9152C58.4214 19.3129 57.4789 19.5117 56.4364 19.5117C55.3856 19.5117 54.4682 19.3447 53.6842 19.0107C52.9085 18.6766 52.2622 18.2154 51.7451 17.6268C51.228 17.0304 50.8402 16.3384 50.5816 15.5511C50.3231 14.7558 50.1938 13.9048 50.1938 12.9981L50.1938 12.6522C50.1938 11.7376 50.3231 10.8866 50.5816 10.0992C50.8402 9.30393 51.228 8.61201 51.7451 8.02349C52.2622 7.427 52.9085 6.96175 53.6842 6.62772C54.4598 6.29369 55.3689 6.12668 56.4114 6.12668C57.5206 6.12668 58.4923 6.32948 59.3263 6.73509C60.1686 7.14069 60.8275 7.72127 61.3029 8.47681C61.7866 9.2244 62.0327 10.1112 62.041 11.1371L58.6507 11.1371C58.6424 10.7077 58.5465 10.318 58.363 9.96801C58.1879 9.61808 57.9293 9.33972 57.5874 9.13294C57.2538 8.91821 56.8409 8.81084 56.3489 8.81084C55.8234 8.81084 55.3939 8.91821 55.0603 9.13294C54.7267 9.33972 54.4682 9.62603 54.2847 9.99187C54.1012 10.3498 53.9719 10.7593 53.8969 11.2206C53.8301 11.674 53.7968 12.1511 53.7968 12.6522L53.7968 12.9981C53.7968 13.4992 53.8301 13.9803 53.8969 14.4416C53.9636 14.9029 54.0887 15.3125 54.2722 15.6704C54.464 16.0283 54.7267 16.3106 55.0603 16.5174C55.3939 16.7242 55.8276 16.8275 56.3614 16.8275Z" fill="white"/>
<path d="M67.7599 0.949219L67.7599 19.2731L64.157 19.2731L64.157 0.949219L67.7599 0.949219ZM67.247 12.3659L66.2587 12.3659C66.2671 11.4672 66.3922 10.64 66.634 9.88451C66.8759 9.12101 67.222 8.46091 67.6724 7.90419C68.1227 7.33952 68.6607 6.9021 69.2862 6.59193C69.92 6.28176 70.6206 6.12668 71.3879 6.12668C72.0551 6.12668 72.6598 6.21814 73.2019 6.40106C73.7523 6.57603 74.2235 6.86234 74.6155 7.25999C75.0159 7.64969 75.3244 8.16266 75.5413 8.79891C75.7581 9.43516 75.8666 10.2066 75.8666 11.1133L75.8666 19.2731L72.2386 19.2731L72.2386 11.0894C72.2386 10.5168 72.151 10.0674 71.9759 9.74135C71.8091 9.40732 71.563 9.17271 71.2378 9.0375C70.9209 8.89435 70.5289 8.82277 70.0618 8.82277C69.5447 8.82277 69.1027 8.91423 68.7357 9.09715C68.3771 9.28007 68.0894 9.53457 67.8725 9.86065C67.6557 10.1788 67.4972 10.5526 67.3971 10.982C67.2971 11.4115 67.247 11.8728 67.247 12.3659Z" fill="white"/>
<path d="M82.2485 9.12101L82.2485 19.2731L78.6456 19.2731L78.6456 6.36527L82.0234 6.36527L82.2485 9.12101ZM81.7231 12.3659L80.7473 12.3659C80.7473 11.4115 80.8766 10.5526 81.1351 9.78907C81.3937 9.01762 81.7565 8.36149 82.2235 7.82068C82.6906 7.27192 83.2452 6.85438 83.8874 6.56807C84.5379 6.27381 85.2635 6.12668 86.0642 6.12668C86.698 6.12668 87.2776 6.21416 87.8031 6.38913C88.3285 6.5641 88.7789 6.84245 89.1542 7.2242C89.5378 7.60595 89.8297 8.11097 90.0299 8.73926C90.2384 9.36756 90.3427 10.135 90.3427 11.0417L90.3427 19.2731L86.7147 19.2731L86.7147 11.0298C86.7147 10.4571 86.6313 10.0118 86.4645 9.69363C86.2977 9.37551 86.0517 9.15282 85.7264 9.02557C85.4095 8.89037 85.0175 8.82277 84.5504 8.82277C84.0667 8.82277 83.6455 8.91423 83.2869 9.09715C82.9366 9.28007 82.6447 9.53457 82.4112 9.86065C82.186 10.1788 82.015 10.5526 81.8983 10.982C81.7815 11.4115 81.7231 11.8728 81.7231 12.3659Z" fill="white"/>
<path d="M96.9999 6.36527L96.9999 19.2731L93.3844 19.2731L93.3844 6.36527L96.9999 6.36527ZM93.1592 3.00111C93.1592 2.50007 93.3427 2.08651 93.7097 1.76043C94.0766 1.43436 94.5687 1.27132 95.1859 1.27132C95.7947 1.27132 96.2826 1.43436 96.6496 1.76043C97.0249 2.08651 97.2125 2.50007 97.2125 3.00111C97.2125 3.50216 97.0249 3.91572 96.6496 4.2418C96.2826 4.56787 95.7947 4.73091 95.1859 4.73091C94.5687 4.73091 94.0766 4.56787 93.7097 4.2418C93.3427 3.91572 93.1592 3.50216 93.1592 3.00111Z" fill="white"/>
<path d="M105.684 16.8275C106.126 16.8275 106.518 16.748 106.86 16.589C107.202 16.4219 107.469 16.1913 107.66 15.897C107.861 15.5948 107.965 15.2409 107.973 14.8353L111.363 14.8353C111.355 15.742 111.101 16.5492 110.6 17.257C110.1 17.9569 109.428 18.5096 108.586 18.9152C107.744 19.3129 106.801 19.5117 105.759 19.5117C104.708 19.5117 103.791 19.3447 103.007 19.0107C102.231 18.6766 101.585 18.2154 101.067 17.6268C100.55 17.0304 100.163 16.3384 99.904 15.5511C99.6455 14.7558 99.5162 13.9048 99.5162 12.9981L99.5162 12.6522C99.5162 11.7376 99.6455 10.8866 99.904 10.0992C100.163 9.30393 100.55 8.61201 101.067 8.02349C101.585 7.427 102.231 6.96175 103.007 6.62772C103.782 6.29369 104.691 6.12668 105.734 6.12668C106.843 6.12668 107.815 6.32948 108.649 6.73509C109.491 7.14069 110.15 7.72127 110.625 8.47681C111.109 9.2244 111.355 10.1112 111.363 11.1371L107.973 11.1371C107.965 10.7077 107.869 10.318 107.685 9.96801C107.51 9.61808 107.252 9.33972 106.91 9.13294C106.576 8.91821 106.163 8.81084 105.671 8.81084C105.146 8.81084 104.716 8.91821 104.383 9.13294C104.049 9.33972 103.791 9.62603 103.607 9.99187C103.424 10.3498 103.294 10.7593 103.219 11.2206C103.153 11.674 103.119 12.1511 103.119 12.6522L103.119 12.9981C103.119 13.4992 103.153 13.9803 103.219 14.4416C103.286 14.9029 103.411 15.3125 103.595 15.6704C103.786 16.0283 104.049 16.3106 104.383 16.5174C104.716 16.7242 105.15 16.8275 105.684 16.8275Z" fill="white"/>
<path d="M120.873 16.3623L120.873 10.6122C120.873 10.1987 120.802 9.84474 120.66 9.55048C120.518 9.24826 120.297 9.01365 119.997 8.84663C119.705 8.67962 119.326 8.59611 118.859 8.59611C118.458 8.59611 118.112 8.66371 117.82 8.79891C117.529 8.92616 117.303 9.11306 117.145 9.3596C116.986 9.5982 116.907 9.88053 116.907 10.2066L113.304 10.2066C113.304 9.65784 113.438 9.13692 113.705 8.64383C113.971 8.15074 114.359 7.71729 114.868 7.3435C115.377 6.96175 115.981 6.66351 116.682 6.44878C117.391 6.23404 118.183 6.12668 119.059 6.12668C120.11 6.12668 121.044 6.29369 121.861 6.62772C122.679 6.96175 123.321 7.46279 123.788 8.13085C124.263 8.79891 124.501 9.63399 124.501 10.6361L124.501 16.1595C124.501 16.8673 124.547 17.4479 124.638 17.9012C124.73 18.3466 124.864 18.7363 125.039 19.0703L125.039 19.2731L121.398 19.2731C121.223 18.9232 121.09 18.4858 120.998 17.9609C120.915 17.428 120.873 16.8952 120.873 16.3623ZM121.348 11.4115L121.373 13.356L119.359 13.356C118.884 13.356 118.471 13.4077 118.121 13.5111C117.77 13.6145 117.483 13.7616 117.257 13.9525C117.032 14.1354 116.865 14.3502 116.757 14.5967C116.657 14.8433 116.607 15.1137 116.607 15.4079C116.607 15.7022 116.678 15.9686 116.82 16.2072C116.961 16.4378 117.166 16.6208 117.433 16.756C117.699 16.8832 118.012 16.9468 118.371 16.9468C118.913 16.9468 119.384 16.8435 119.785 16.6367C120.185 16.4299 120.493 16.1754 120.71 15.8732C120.935 15.571 121.052 15.2847 121.061 15.0142L122.011 16.4697C121.878 16.7957 121.694 17.1337 121.461 17.4837C121.236 17.8336 120.948 18.1637 120.598 18.4738C120.247 18.7761 119.826 19.0266 119.334 19.2254C118.842 19.4163 118.258 19.5117 117.583 19.5117C116.724 19.5117 115.944 19.3487 115.243 19.0226C114.551 18.6886 114.001 18.2313 113.592 17.6507C113.192 17.0622 112.991 16.3941 112.991 15.6465C112.991 14.9705 113.125 14.37 113.392 13.8451C113.659 13.3202 114.051 12.8788 114.568 12.521C115.093 12.1551 115.748 11.8807 116.532 11.6978C117.316 11.5069 118.225 11.4115 119.259 11.4115L121.348 11.4115Z" fill="white"/>
<path d="M131.196 0.949219L131.196 19.2731L127.58 19.2731L127.58 0.949219L131.196 0.949219Z" fill="white"/>
<path d="M150.49 14.7279C150.49 14.4178 150.44 14.1394 150.34 13.8929C150.248 13.6384 150.073 13.4077 149.814 13.2009C149.556 12.9862 149.193 12.7755 148.726 12.5687C148.259 12.3619 147.654 12.1472 146.912 11.9245C146.086 11.67 145.302 11.3837 144.56 11.0655C143.826 10.7474 143.176 10.3776 142.608 9.95609C142.05 9.52662 141.608 9.02955 141.282 8.46488C140.965 7.90021 140.807 7.24408 140.807 6.49649C140.807 5.77276 140.974 5.11663 141.307 4.52811C141.641 3.93162 142.108 3.42263 142.709 3.00111C143.309 2.57165 144.018 2.24159 144.835 2.01096C145.661 1.78032 146.566 1.665 147.55 1.665C148.893 1.665 150.065 1.89564 151.065 2.35691C152.066 2.81819 152.842 3.45046 153.392 4.25372C153.951 5.05699 154.23 5.97557 154.23 7.00947L150.502 7.00947C150.502 6.50047 150.39 6.0551 150.165 5.67335C149.948 5.28365 149.614 4.97746 149.164 4.75477C148.722 4.53208 148.163 4.42074 147.487 4.42074C146.837 4.42074 146.295 4.51618 145.861 4.70705C145.427 4.88997 145.102 5.14049 144.885 5.45862C144.669 5.76879 144.56 6.11872 144.56 6.50842C144.56 6.80269 144.635 7.06912 144.785 7.30771C144.944 7.5463 145.177 7.76899 145.486 7.97577C145.794 8.18255 146.174 8.3774 146.624 8.56032C147.075 8.74324 147.596 8.92218 148.188 9.09715C149.181 9.38346 150.052 9.70556 150.803 10.0635C151.562 10.4213 152.195 10.823 152.704 11.2683C153.213 11.7137 153.597 12.2187 153.855 12.7834C154.114 13.3481 154.243 13.9883 154.243 14.7041C154.243 15.4596 154.089 16.1356 153.78 16.7321C153.472 17.3286 153.025 17.8336 152.442 18.2472C151.858 18.6607 151.161 18.9749 150.352 19.1896C149.543 19.4043 148.638 19.5117 147.638 19.5117C146.737 19.5117 145.849 19.4004 144.973 19.1777C144.097 18.947 143.301 18.6011 142.583 18.1398C141.875 17.6785 141.307 17.09 140.882 16.3742C140.457 15.6584 140.244 14.8114 140.244 13.8332L144.01 13.8332C144.01 14.374 144.097 14.8313 144.272 15.2051C144.447 15.5789 144.694 15.8811 145.01 16.1118C145.336 16.3424 145.719 16.5094 146.161 16.6128C146.612 16.7162 147.104 16.7679 147.638 16.7679C148.288 16.7679 148.822 16.6804 149.239 16.5054C149.664 16.3305 149.977 16.0879 150.177 15.7777C150.386 15.4676 150.49 15.1176 150.49 14.7279Z" fill="white"/>
<path d="M160.2 0.949219L160.2 19.2731L156.597 19.2731L156.597 0.949219L160.2 0.949219ZM159.687 12.3659L158.698 12.3659C158.707 11.4672 158.832 10.64 159.074 9.88451C159.316 9.12101 159.662 8.46091 160.112 7.90419C160.562 7.33952 161.1 6.9021 161.726 6.59193C162.36 6.28176 163.06 6.12668 163.828 6.12668C164.495 6.12668 165.099 6.21814 165.642 6.40106C166.192 6.57603 166.663 6.86234 167.055 7.25999C167.456 7.64969 167.764 8.16266 167.981 8.79891C168.198 9.43516 168.306 10.2066 168.306 11.1133L168.306 19.2731L164.678 19.2731L164.678 11.0894C164.678 10.5168 164.591 10.0674 164.416 9.74135C164.249 9.40732 164.003 9.17271 163.677 9.0375C163.361 8.89435 162.969 8.82277 162.502 8.82277C161.984 8.82277 161.542 8.91423 161.175 9.09715C160.817 9.28007 160.529 9.53457 160.312 9.86065C160.095 10.1788 159.937 10.5526 159.837 10.982C159.737 11.4115 159.687 11.8728 159.687 12.3659Z" fill="white"/>
<path d="M178.466 16.3623L178.466 10.6122C178.466 10.1987 178.395 9.84474 178.254 9.55048C178.112 9.24826 177.891 9.01365 177.591 8.84663C177.299 8.67962 176.919 8.59611 176.452 8.59611C176.052 8.59611 175.706 8.66371 175.414 8.79891C175.122 8.92616 174.897 9.11306 174.738 9.3596C174.58 9.5982 174.501 9.88053 174.501 10.2066L170.898 10.2066C170.898 9.65784 171.031 9.13692 171.298 8.64383C171.565 8.15074 171.953 7.71729 172.461 7.3435C172.97 6.96175 173.575 6.66351 174.275 6.44878C174.984 6.23404 175.777 6.12668 176.652 6.12668C177.703 6.12668 178.637 6.29369 179.455 6.62772C180.272 6.96175 180.914 7.46279 181.381 8.13085C181.857 8.79891 182.094 9.63399 182.094 10.6361L182.094 16.1595C182.094 16.8673 182.14 17.4479 182.232 17.9012C182.324 18.3466 182.457 18.7363 182.632 19.0703L182.632 19.2731L178.992 19.2731C178.817 18.9232 178.683 18.4858 178.591 17.9609C178.508 17.428 178.466 16.8952 178.466 16.3623ZM178.942 11.4115L178.967 13.356L176.953 13.356C176.477 13.356 176.064 13.4077 175.714 13.5111C175.364 13.6145 175.076 13.7616 174.851 13.9525C174.626 14.1354 174.459 14.3502 174.35 14.5967C174.25 14.8433 174.2 15.1137 174.2 15.4079C174.2 15.7022 174.271 15.9686 174.413 16.2072C174.555 16.4378 174.759 16.6208 175.026 16.756C175.293 16.8832 175.606 16.9468 175.964 16.9468C176.506 16.9468 176.978 16.8435 177.378 16.6367C177.778 16.4299 178.087 16.1754 178.304 15.8732C178.529 15.571 178.646 15.2847 178.654 15.0142L179.605 16.4697C179.471 16.7957 179.288 17.1337 179.054 17.4837C178.829 17.8336 178.541 18.1637 178.191 18.4738C177.841 18.7761 177.42 19.0266 176.928 19.2254C176.435 19.4163 175.852 19.5117 175.176 19.5117C174.317 19.5117 173.537 19.3487 172.837 19.0226C172.144 18.6886 171.594 18.2313 171.185 17.6507C170.785 17.0622 170.585 16.3941 170.585 15.6465C170.585 14.9705 170.718 14.37 170.985 13.8451C171.252 13.3202 171.644 12.8788 172.161 12.521C172.687 12.1551 173.341 11.8807 174.125 11.6978C174.909 11.5069 175.818 11.4115 176.852 11.4115L178.942 11.4115Z" fill="white"/>
<path d="M188.589 9.18066L188.589 19.2731L184.986 19.2731L184.986 6.36527L188.376 6.36527L188.589 9.18066ZM192.667 6.28176L192.605 9.46697C192.429 9.44311 192.217 9.42323 191.967 9.40732C191.725 9.38346 191.504 9.37153 191.304 9.37153C190.795 9.37153 190.353 9.43516 189.977 9.56241C189.611 9.6817 189.302 9.86065 189.052 10.0992C188.81 10.3378 188.626 10.6281 188.501 10.9701C188.385 11.3121 188.318 11.7018 188.301 12.1392L187.576 11.9245C187.576 11.0894 187.663 10.3219 187.838 9.62206C188.013 8.91423 188.268 8.29787 188.601 7.77296C188.943 7.24806 189.36 6.84245 189.852 6.55614C190.344 6.26983 190.907 6.12668 191.541 6.12668C191.741 6.12668 191.946 6.14258 192.154 6.17439C192.363 6.19825 192.534 6.23404 192.667 6.28176Z" fill="white"/>
<path d="M200.463 19.5117C199.412 19.5117 198.47 19.3527 197.636 19.0345C196.801 18.7085 196.093 18.2591 195.509 17.6865C194.933 17.1139 194.491 16.4498 194.183 15.6942C193.874 14.9307 193.72 14.1195 193.72 13.2606L193.72 12.7834C193.72 11.8052 193.866 10.9105 194.158 10.0992C194.45 9.28803 194.867 8.58418 195.409 7.9877C195.959 7.39122 196.626 6.93391 197.41 6.61579C198.194 6.28971 199.078 6.12668 200.063 6.12668C201.022 6.12668 201.872 6.27778 202.615 6.58C203.357 6.88222 203.978 7.31169 204.479 7.8684C204.987 8.42512 205.371 9.09318 205.63 9.87258C205.888 10.644 206.017 11.503 206.017 12.4494L206.017 13.8809L195.259 13.8809L195.259 11.5904L202.477 11.5904L202.477 11.328C202.477 10.8508 202.385 10.4253 202.202 10.0515C202.027 9.66977 201.76 9.36756 201.401 9.14487C201.042 8.92218 200.584 8.81084 200.025 8.81084C199.55 8.81084 199.141 8.91025 198.799 9.10908C198.457 9.30791 198.178 9.58627 197.961 9.94416C197.752 10.302 197.594 10.7236 197.485 11.2087C197.385 11.6859 197.335 12.2108 197.335 12.7834L197.335 13.2606C197.335 13.7775 197.41 14.2547 197.56 14.6921C197.719 15.1296 197.94 15.5073 198.223 15.8255C198.515 16.1436 198.866 16.3901 199.274 16.5651C199.691 16.7401 200.163 16.8275 200.688 16.8275C201.339 16.8275 201.943 16.7083 202.502 16.4697C203.069 16.2231 203.557 15.8533 203.966 15.3602L205.717 17.1735C205.434 17.5632 205.046 17.937 204.554 18.2949C204.07 18.6528 203.486 18.947 202.802 19.1777C202.118 19.4004 201.339 19.5117 200.463 19.5117Z" fill="white"/>
<path d="M15.3159 4.24982L11.1923 8.09766C10.643 8.61064 9.74589 8.20549 9.77118 7.45568L9.95728 1.83006C9.97448 1.3191 10.4387 0.946205 10.9455 1.02784C12.5051 1.27979 14.0091 1.93588 15.2846 2.99207C15.6719 3.31457 15.6851 3.90616 15.3159 4.24982Z" fill="white"/>
<path d="M3.38748 15.3791L7.51113 11.5313C8.06035 11.0183 7.71342 10.1002 6.96192 10.076L1.31604 9.8916C0.803241 9.87447 0.399675 10.3129 0.448224 10.8208C0.597918 12.388 1.15623 13.9269 2.13025 15.2643C2.42762 15.6724 3.01931 15.7238 3.38748 15.3791Z" fill="white"/>
<path d="M4.0538 3.88188L7.91549 7.99074C8.43031 8.53798 9.35174 8.1923 9.37601 7.4435L9.5611 1.81787C9.5783 1.30691 9.13832 0.904794 8.62855 0.953169C7.05475 1.10132 5.51129 1.65763 4.1691 2.62816C3.75947 2.92445 3.70788 3.51403 4.0538 3.88188Z" fill="white"/>
<path d="M2.49618 4.18922C1.43619 5.46008 0.776726 6.9597 0.523866 8.51375C0.441939 9.01766 0.816173 9.48126 1.32897 9.49839L6.97586 9.68282C7.72838 9.70701 8.13396 8.81408 7.62015 8.26684L3.75846 4.15697C3.41255 3.78912 2.81883 3.80121 2.49618 4.18922Z" fill="white"/>
<path d="M0.285619 19.6486L4.40927 15.8007C4.95849 15.2878 5.85564 15.6929 5.83035 16.4427L5.64425 22.0683C5.62705 22.5793 5.1628 22.9522 4.65607 22.8706C3.09642 22.6186 1.5924 21.9625 0.316974 20.9063C-0.0704085 20.5838 -0.0835573 19.9923 0.285619 19.6486Z" fill="white"/>
<path d="M12.2148 8.51932L8.09116 12.3672C7.54195 12.8801 7.88887 13.7983 8.64037 13.8224L14.2862 14.0069C14.7991 14.024 15.2026 13.5856 15.1541 13.0777C15.0044 11.5105 14.4461 9.97158 13.472 8.63421C13.1747 8.22605 12.584 8.17465 12.2148 8.51932Z" fill="white"/>
<path d="M11.5483 20.0175L7.68658 15.9077C7.17175 15.3604 6.25033 15.7061 6.22606 16.4549L6.04096 22.0805C6.02377 22.5915 6.46374 22.9936 6.97351 22.9452C8.54631 22.7961 10.0908 22.2398 11.433 21.2693C11.8426 20.974 11.8942 20.3844 11.5483 20.0175Z" fill="white"/>
<path d="M13.1057 19.7092C14.1657 18.4383 14.8252 16.9387 15.0781 15.3846C15.16 14.8807 14.7858 14.4171 14.273 14.4L8.62607 14.2156C7.87355 14.1914 7.46796 15.0843 7.98178 15.6315L11.8435 19.7404C12.1894 20.1093 12.7831 20.0972 13.1057 19.7092Z" fill="white"/>
</svg>
