<svg width="299" height="32" viewBox="0 0 299 32" fill="none" xmlns="http://www.w3.org/2000/svg">
<path d="M43.9787 1.38817V26.653H38.5575V1.38817H43.9787ZM52.1016 1.38817V5.46594H30.5615V1.38817H52.1016Z" fill="white"/>
<path d="M62.3666 27C60.8435 27 59.4776 26.7686 58.2689 26.3059C57.0601 25.8316 56.0327 25.178 55.1865 24.3451C54.3525 23.5122 53.7118 22.5463 53.2646 21.4473C52.8174 20.3368 52.5937 19.1568 52.5937 17.9075V17.2134C52.5937 15.7905 52.8053 14.4891 53.2283 13.3091C53.6514 12.1292 54.2558 11.1054 55.0415 10.2378C55.8393 9.37018 56.8063 8.70501 57.9425 8.24229C59.0787 7.76799 60.36 7.53085 61.7864 7.53085C63.1764 7.53085 64.4094 7.75064 65.4852 8.19023C66.561 8.62982 67.4615 9.2545 68.1867 10.0643C68.9241 10.874 69.4801 11.8458 69.8548 12.9794C70.2295 14.1015 70.4169 15.3509 70.4169 16.7275V18.8098H54.8239V15.4781H65.2857V15.0964C65.2857 14.4023 65.1528 13.7834 64.8868 13.2397C64.633 12.6844 64.2462 12.2449 63.7264 11.921C63.2067 11.597 62.5418 11.4351 61.732 11.4351C61.043 11.4351 60.4507 11.5797 59.9551 11.8689C59.4595 12.1581 59.0546 12.563 58.7403 13.0835C58.4381 13.6041 58.2084 14.2172 58.0513 14.9229C57.9062 15.617 57.8337 16.3805 57.8337 17.2134V17.9075C57.8337 18.6594 57.9425 19.3535 58.1601 19.9897C58.3897 20.626 58.7101 21.1755 59.121 21.6382C59.5441 22.1009 60.0518 22.4595 60.6441 22.714C61.2485 22.9685 61.9314 23.0958 62.6929 23.0958C63.6358 23.0958 64.5121 22.9222 65.322 22.5752C66.1439 22.2166 66.8511 21.6787 67.4434 20.9614L69.9817 23.599C69.5708 24.1658 69.0087 24.7095 68.2955 25.2301C67.5944 25.7506 66.7483 26.1787 65.7571 26.5141C64.7659 26.838 63.6358 27 62.3666 27Z" fill="white"/>
<path d="M81.6609 23.0958C82.3016 23.0958 82.8697 22.9801 83.3653 22.7487C83.8609 22.5058 84.2477 22.1703 84.5257 21.7423C84.8158 21.3027 84.9669 20.7879 84.979 20.1979H89.8926C89.8805 21.5167 89.5118 22.6909 88.7866 23.7204C88.0613 24.7384 87.0883 25.5424 85.8674 26.1324C84.6466 26.7108 83.2807 27 81.7697 27C80.2467 27 78.9171 26.7571 77.7808 26.2712C76.6567 25.7853 75.7199 25.1144 74.9705 24.2584C74.221 23.3907 73.659 22.3843 73.2842 21.2391C72.9095 20.0823 72.7222 18.8445 72.7222 17.5257V17.0225C72.7222 15.6922 72.9095 14.4544 73.2842 13.3091C73.659 12.1523 74.221 11.1459 74.9705 10.2898C75.7199 9.42224 76.6567 8.7455 77.7808 8.25964C78.905 7.77378 80.2225 7.53085 81.7335 7.53085C83.3411 7.53085 84.7493 7.82584 85.9581 8.41581C87.1789 9.00578 88.1339 9.85026 88.8228 10.9492C89.5239 12.0366 89.8805 13.3265 89.8926 14.8188H84.979C84.9669 14.1941 84.8279 13.6272 84.562 13.1183C84.3081 12.6093 83.9334 12.2044 83.4378 11.9036C82.9543 11.5913 82.356 11.4351 81.6428 11.4351C80.8813 11.4351 80.2588 11.5913 79.7753 11.9036C79.2918 12.2044 78.9171 12.6208 78.6511 13.153C78.3852 13.6735 78.1979 14.2693 78.0891 14.9402C77.9924 15.5996 77.944 16.2937 77.944 17.0225V17.5257C77.944 18.2545 77.9924 18.9544 78.0891 19.6253C78.1858 20.2963 78.3671 20.892 78.633 21.4126C78.911 21.9332 79.2918 22.3438 79.7753 22.6446C80.2588 22.9454 80.8873 23.0958 81.6609 23.0958Z" fill="white"/>
<path d="M98.1812 0V26.653H92.9594V0H98.1812ZM97.4378 16.606H96.0055C96.0175 15.2988 96.1989 14.0958 96.5494 12.9968C96.8999 11.8862 97.4016 10.9261 98.0543 10.1163C98.707 9.29499 99.4867 8.65874 100.393 8.20758C101.312 7.75643 102.327 7.53085 103.439 7.53085C104.406 7.53085 105.283 7.66388 106.068 7.92995C106.866 8.18445 107.549 8.6009 108.117 9.17931C108.697 9.74614 109.145 10.4923 109.459 11.4177C109.773 12.3432 109.93 13.4653 109.93 14.7841V26.653H104.672V14.7494C104.672 13.9165 104.545 13.2629 104.292 12.7886C104.05 12.3027 103.693 11.9614 103.222 11.7648C102.762 11.5566 102.194 11.4524 101.517 11.4524C100.768 11.4524 100.127 11.5855 99.5955 11.8515C99.0757 12.1176 98.6587 12.4878 98.3444 12.9621C98.0301 13.4248 97.8005 13.9685 97.6554 14.5932C97.5104 15.2179 97.4378 15.8888 97.4378 16.606Z" fill="white"/>
<path d="M119.18 11.8862V26.653H113.958V7.87789H118.854L119.18 11.8862ZM118.418 16.606H117.004C117.004 15.2179 117.192 13.9685 117.566 12.858C117.941 11.7359 118.467 10.7815 119.144 9.99486C119.821 9.19666 120.624 8.58933 121.555 8.17288C122.498 7.74486 123.55 7.53085 124.71 7.53085C125.629 7.53085 126.469 7.6581 127.23 7.9126C127.992 8.1671 128.645 8.57198 129.188 9.12725C129.745 9.68252 130.168 10.4171 130.458 11.331C130.76 12.2449 130.911 13.3612 130.911 14.6799V26.653H125.653V14.6626C125.653 13.8297 125.532 13.1819 125.29 12.7192C125.048 12.2564 124.692 11.9325 124.22 11.7474C123.761 11.5508 123.193 11.4524 122.516 11.4524C121.815 11.4524 121.205 11.5855 120.685 11.8515C120.177 12.1176 119.754 12.4878 119.416 12.9621C119.089 13.4248 118.842 13.9685 118.672 14.5932C118.503 15.2179 118.418 15.8888 118.418 16.606Z" fill="white"/>
<path d="M140.559 7.87789V26.653H135.319V7.87789H140.559ZM134.993 2.98458C134.993 2.25578 135.259 1.65424 135.791 1.17995C136.323 0.705656 137.036 0.468509 137.93 0.468509C138.813 0.468509 139.52 0.705656 140.052 1.17995C140.596 1.65424 140.868 2.25578 140.868 2.98458C140.868 3.71337 140.596 4.31491 140.052 4.7892C139.52 5.2635 138.813 5.50064 137.93 5.50064C137.036 5.50064 136.323 5.2635 135.791 4.7892C135.259 4.31491 134.993 3.71337 134.993 2.98458Z" fill="white"/>
<path d="M153.145 23.0958C153.786 23.0958 154.354 22.9801 154.85 22.7487C155.345 22.5058 155.732 22.1703 156.01 21.7423C156.3 21.3027 156.451 20.7879 156.463 20.1979H161.377C161.365 21.5167 160.996 22.6909 160.271 23.7204C159.546 24.7384 158.573 25.5424 157.352 26.1324C156.131 26.7108 154.765 27 153.254 27C151.731 27 150.401 26.7571 149.265 26.2712C148.141 25.7853 147.204 25.1144 146.455 24.2584C145.705 23.3907 145.143 22.3843 144.769 21.2391C144.394 20.0823 144.206 18.8445 144.206 17.5257V17.0225C144.206 15.6922 144.394 14.4544 144.769 13.3091C145.143 12.1523 145.705 11.1459 146.455 10.2898C147.204 9.42224 148.141 8.7455 149.265 8.25964C150.389 7.77378 151.707 7.53085 153.218 7.53085C154.825 7.53085 156.234 7.82584 157.442 8.41581C158.663 9.00578 159.618 9.85026 160.307 10.9492C161.008 12.0366 161.365 13.3265 161.377 14.8188H156.463C156.451 14.1941 156.312 13.6272 156.046 13.1183C155.792 12.6093 155.418 12.2044 154.922 11.9036C154.439 11.5913 153.84 11.4351 153.127 11.4351C152.366 11.4351 151.743 11.5913 151.26 11.9036C150.776 12.2044 150.401 12.6208 150.135 13.153C149.869 13.6735 149.682 14.2693 149.573 14.9402C149.477 15.5996 149.428 16.2937 149.428 17.0225V17.5257C149.428 18.2545 149.477 18.9544 149.573 19.6253C149.67 20.2963 149.851 20.892 150.117 21.4126C150.395 21.9332 150.776 22.3438 151.26 22.6446C151.743 22.9454 152.372 23.0958 153.145 23.0958Z" fill="white"/>
<path d="M175.159 22.419V14.0553C175.159 13.4537 175.057 12.9389 174.851 12.5109C174.646 12.0713 174.325 11.7301 173.89 11.4871C173.467 11.2442 172.917 11.1228 172.24 11.1228C171.66 11.1228 171.158 11.2211 170.735 11.4177C170.312 11.6028 169.986 11.8747 169.756 12.2333C169.527 12.5803 169.412 12.991 169.412 13.4653H164.19C164.19 12.6671 164.383 11.9094 164.77 11.1922C165.157 10.4749 165.719 9.84447 166.456 9.30077C167.194 8.7455 168.07 8.3117 169.085 7.99936C170.113 7.68702 171.261 7.53085 172.53 7.53085C174.053 7.53085 175.407 7.77378 176.592 8.25964C177.776 8.7455 178.707 9.47429 179.384 10.446C180.073 11.4177 180.417 12.6324 180.417 14.09V22.124C180.417 23.1536 180.484 23.9981 180.617 24.6575C180.75 25.3053 180.943 25.8721 181.197 26.358V26.653H175.921C175.667 26.144 175.474 25.5077 175.341 24.7442C175.22 23.9692 175.159 23.1941 175.159 22.419ZM175.848 15.2179L175.885 18.0463H172.965C172.276 18.0463 171.678 18.1215 171.17 18.2719C170.663 18.4222 170.246 18.6362 169.919 18.9139C169.593 19.1799 169.351 19.4923 169.194 19.8509C169.049 20.2095 168.977 20.6028 168.977 21.0308C168.977 21.4589 169.079 21.8464 169.285 22.1934C169.49 22.5289 169.786 22.795 170.173 22.9916C170.56 23.1767 171.013 23.2693 171.533 23.2693C172.319 23.2693 173.002 23.1189 173.582 22.8181C174.162 22.5174 174.609 22.1472 174.924 21.7076C175.25 21.268 175.419 20.8515 175.431 20.4582L176.809 22.5752C176.616 23.0495 176.35 23.5411 176.011 24.0501C175.685 24.5591 175.268 25.0392 174.76 25.4904C174.253 25.9299 173.642 26.2943 172.929 26.5835C172.216 26.8612 171.37 27 170.391 27C169.146 27 168.016 26.7629 167 26.2886C165.997 25.8027 165.199 25.1375 164.607 24.2931C164.027 23.437 163.737 22.4653 163.737 21.3779C163.737 20.3946 163.93 19.5212 164.317 18.7577C164.704 17.9942 165.272 17.3522 166.021 16.8316C166.783 16.2995 167.731 15.9004 168.868 15.6343C170.004 15.3567 171.322 15.2179 172.82 15.2179H175.848Z" fill="white"/>
<path d="M190.12 0V26.653H184.88V0H190.12Z" fill="white"/>
<path d="M218.084 20.0418C218.084 19.5906 218.012 19.1857 217.866 18.8271C217.734 18.4569 217.48 18.1215 217.105 17.8207C216.73 17.5084 216.204 17.2018 215.528 16.901C214.851 16.6003 213.974 16.2879 212.899 15.964C211.702 15.5938 210.566 15.1774 209.49 14.7147C208.426 14.2519 207.483 13.714 206.661 13.1009C205.851 12.4762 205.211 11.7532 204.739 10.9319C204.28 10.1105 204.05 9.15617 204.05 8.06877C204.05 7.01607 204.292 6.0617 204.776 5.20566C205.259 4.33805 205.936 3.59769 206.806 2.98458C207.677 2.3599 208.704 1.87982 209.889 1.54434C211.085 1.20887 212.397 1.04113 213.823 1.04113C215.769 1.04113 217.468 1.37661 218.918 2.04756C220.369 2.71851 221.493 3.63817 222.291 4.80656C223.1 5.97494 223.505 7.31105 223.505 8.81491H218.102C218.102 8.07455 217.939 7.42674 217.613 6.87147C217.298 6.30463 216.815 5.85925 216.162 5.53535C215.522 5.21144 214.712 5.04949 213.733 5.04949C212.79 5.04949 212.004 5.1883 211.375 5.46594C210.747 5.73201 210.275 6.0964 209.961 6.55913C209.647 7.01028 209.49 7.51928 209.49 8.08612C209.49 8.51414 209.599 8.90167 209.816 9.24871C210.046 9.59576 210.384 9.91967 210.832 10.2204C211.279 10.5212 211.829 10.8046 212.481 11.0707C213.134 11.3368 213.89 11.597 214.748 11.8515C216.186 12.268 217.449 12.7365 218.537 13.2571C219.637 13.7776 220.556 14.3618 221.293 15.0096C222.031 15.6575 222.587 16.392 222.961 17.2134C223.336 18.0347 223.523 18.9659 223.523 20.0071C223.523 21.106 223.3 22.0893 222.853 22.9569C222.405 23.8246 221.759 24.5591 220.913 25.1607C220.066 25.7622 219.057 26.2192 217.885 26.5315C216.712 26.8438 215.401 27 213.95 27C212.645 27 211.357 26.838 210.088 26.5141C208.819 26.1787 207.665 25.6755 206.625 25.0045C205.598 24.3335 204.776 23.4775 204.159 22.4364C203.543 21.3952 203.234 20.1632 203.234 18.7404H208.692C208.692 19.527 208.819 20.1922 209.073 20.7359C209.327 21.2796 209.683 21.7192 210.143 22.0546C210.614 22.3901 211.17 22.633 211.811 22.7834C212.463 22.9338 213.177 23.009 213.95 23.009C214.893 23.009 215.667 22.8817 216.271 22.6272C216.887 22.3728 217.341 22.0199 217.631 21.5688C217.933 21.1176 218.084 20.6086 218.084 20.0418Z" fill="white"/>
<path d="M232.157 0V26.653H226.935V0H232.157ZM231.413 16.606H229.981C229.993 15.2988 230.174 14.0958 230.525 12.9968C230.875 11.8862 231.377 10.9261 232.03 10.1163C232.682 9.29499 233.462 8.65874 234.369 8.20758C235.287 7.75643 236.303 7.53085 237.415 7.53085C238.382 7.53085 239.258 7.66388 240.044 7.92995C240.842 8.18445 241.525 8.6009 242.093 9.17931C242.673 9.74614 243.12 10.4923 243.434 11.4177C243.749 12.3432 243.906 13.4653 243.906 14.7841V26.653H238.648V14.7494C238.648 13.9165 238.521 13.2629 238.267 12.7886C238.025 12.3027 237.669 11.9614 237.197 11.7648C236.738 11.5566 236.17 11.4524 235.493 11.4524C234.743 11.4524 234.103 11.5855 233.571 11.8515C233.051 12.1176 232.634 12.4878 232.32 12.9621C232.006 13.4248 231.776 13.9685 231.631 14.5932C231.486 15.2179 231.413 15.8888 231.413 16.606Z" fill="white"/>
<path d="M258.631 22.419V14.0553C258.631 13.4537 258.528 12.9389 258.323 12.5109C258.117 12.0713 257.797 11.7301 257.362 11.4871C256.939 11.2442 256.389 11.1228 255.712 11.1228C255.132 11.1228 254.63 11.2211 254.207 11.4177C253.784 11.6028 253.458 11.8747 253.228 12.2333C252.998 12.5803 252.883 12.991 252.883 13.4653H247.662C247.662 12.6671 247.855 11.9094 248.242 11.1922C248.629 10.4749 249.191 9.84447 249.928 9.30077C250.665 8.7455 251.542 8.3117 252.557 7.99936C253.584 7.68702 254.733 7.53085 256.002 7.53085C257.525 7.53085 258.879 7.77378 260.063 8.25964C261.248 8.7455 262.179 9.47429 262.856 10.446C263.545 11.4177 263.889 12.6324 263.889 14.09V22.124C263.889 23.1536 263.956 23.9981 264.089 24.6575C264.222 25.3053 264.415 25.8721 264.669 26.358V26.653H259.393C259.139 26.144 258.945 25.5077 258.812 24.7442C258.691 23.9692 258.631 23.1941 258.631 22.419ZM259.32 15.2179L259.356 18.0463H256.437C255.748 18.0463 255.15 18.1215 254.642 18.2719C254.134 18.4222 253.717 18.6362 253.391 18.9139C253.065 19.1799 252.823 19.4923 252.666 19.8509C252.521 20.2095 252.448 20.6028 252.448 21.0308C252.448 21.4589 252.551 21.8464 252.756 22.1934C252.962 22.5289 253.258 22.795 253.645 22.9916C254.032 23.1767 254.485 23.2693 255.005 23.2693C255.79 23.2693 256.473 23.1189 257.054 22.8181C257.634 22.5174 258.081 22.1472 258.395 21.7076C258.722 21.268 258.891 20.8515 258.903 20.4582L260.281 22.5752C260.088 23.0495 259.822 23.5411 259.483 24.0501C259.157 24.5591 258.74 25.0392 258.232 25.4904C257.724 25.9299 257.114 26.2943 256.401 26.5835C255.688 26.8612 254.842 27 253.862 27C252.617 27 251.487 26.7629 250.472 26.2886C249.469 25.8027 248.671 25.1375 248.079 24.2931C247.498 23.437 247.208 22.4653 247.208 21.3779C247.208 20.3946 247.402 19.5212 247.788 18.7577C248.175 17.9942 248.743 17.3522 249.493 16.8316C250.254 16.2995 251.203 15.9004 252.339 15.6343C253.476 15.3567 254.793 15.2179 256.292 15.2179H259.32Z" fill="white"/>
<path d="M273.302 11.973V26.653H268.08V7.87789H272.994L273.302 11.973ZM279.213 7.75643L279.122 12.3895C278.868 12.3548 278.56 12.3258 278.197 12.3027C277.847 12.268 277.527 12.2506 277.236 12.2506C276.499 12.2506 275.858 12.3432 275.314 12.5283C274.783 12.7018 274.335 12.9621 273.973 13.3091C273.622 13.6562 273.356 14.0784 273.175 14.5758C273.006 15.0733 272.909 15.6401 272.885 16.2763L271.833 15.964C271.833 14.7494 271.96 13.633 272.214 12.615C272.468 11.5855 272.837 10.6889 273.32 9.92545C273.816 9.16195 274.42 8.57198 275.133 8.15553C275.846 7.73907 276.662 7.53085 277.581 7.53085C277.871 7.53085 278.167 7.55398 278.469 7.60026C278.772 7.63496 279.019 7.68702 279.213 7.75643Z" fill="white"/>
<path d="M290.511 27C288.988 27 287.622 26.7686 286.413 26.3059C285.205 25.8316 284.177 25.178 283.331 24.3451C282.497 23.5122 281.856 22.5463 281.409 21.4473C280.962 20.3368 280.738 19.1568 280.738 17.9075V17.2134C280.738 15.7905 280.95 14.4891 281.373 13.3091C281.796 12.1292 282.4 11.1054 283.186 10.2378C283.984 9.37018 284.951 8.70501 286.087 8.24229C287.223 7.76799 288.505 7.53085 289.931 7.53085C291.321 7.53085 292.554 7.75064 293.63 8.19023C294.706 8.62982 295.606 9.2545 296.331 10.0643C297.069 10.874 297.625 11.8458 297.999 12.9794C298.374 14.1015 298.562 15.3509 298.562 16.7275V18.8098H282.969V15.4781H293.43V15.0964C293.43 14.4023 293.297 13.7834 293.031 13.2397C292.778 12.6844 292.391 12.2449 291.871 11.921C291.351 11.597 290.686 11.4351 289.877 11.4351C289.188 11.4351 288.595 11.5797 288.1 11.8689C287.604 12.1581 287.199 12.563 286.885 13.0835C286.583 13.6041 286.353 14.2172 286.196 14.9229C286.051 15.617 285.978 16.3805 285.978 17.2134V17.9075C285.978 18.6594 286.087 19.3535 286.305 19.9897C286.534 20.626 286.855 21.1755 287.266 21.6382C287.689 22.1009 288.196 22.4595 288.789 22.714C289.393 22.9685 290.076 23.0958 290.838 23.0958C291.78 23.0958 292.657 22.9222 293.467 22.5752C294.289 22.2166 294.996 21.6787 295.588 20.9614L298.126 23.599C297.715 24.1658 297.153 24.7095 296.44 25.2301C295.739 25.7506 294.893 26.1787 293.902 26.5141C292.911 26.838 291.78 27 290.511 27Z" fill="white"/>
<path d="M22.1726 4.80077L16.1961 10.3976C15.4001 11.1438 14.0999 10.5545 14.1365 9.46384L14.4062 1.28111C14.4311 0.537893 15.104 -0.0044943 15.8384 0.114245C18.0989 0.480723 20.2787 1.43503 22.1272 2.97131C22.6886 3.4404 22.7077 4.30089 22.1726 4.80077Z" fill="white"/>
<path d="M4.88483 20.989L10.8614 15.3921C11.6573 14.6459 11.1545 13.3105 10.0654 13.2753L1.88264 13.0071C1.13942 12.9821 0.554523 13.6198 0.624887 14.3586C0.841842 16.6381 1.65103 18.8766 3.0627 20.8218C3.49368 21.4155 4.35124 21.4903 4.88483 20.989Z" fill="white"/>
<path d="M5.84966 4.26569L11.4465 10.2422C12.1927 11.0382 13.5281 10.5354 13.5633 9.44622L13.8316 1.2635C13.8565 0.520282 13.2188 -0.0646176 12.48 0.00574625C10.199 0.221235 7.96204 1.03042 6.01677 2.44209C5.42308 2.87307 5.34832 3.73063 5.84966 4.26569Z" fill="white"/>
<path d="M3.59265 4.71271C2.05637 6.56122 1.1006 8.7425 0.734118 11.0029C0.615379 11.7359 1.15777 12.4102 1.90098 12.4351L10.0852 12.7034C11.1758 12.7386 11.7636 11.4398 11.019 10.6438L5.42211 4.6658C4.92076 4.13074 4.06027 4.14833 3.59265 4.71271Z" fill="white"/>
<path d="M0.388823 27.1992L6.36535 21.6023C7.16134 20.8562 8.4616 21.4455 8.42496 22.5361L8.15523 30.7188C8.13031 31.462 7.45745 32.0044 6.72303 31.8857C4.46259 31.5192 2.28278 30.5649 0.434266 29.0286C-0.127179 28.5595 -0.146236 27.699 0.388823 27.1992Z" fill="white"/>
<path d="M17.678 11.0113L11.7015 16.6081C10.9055 17.3543 11.4083 18.6897 12.4975 18.7249L20.6802 18.9932C21.4235 19.0181 22.0083 18.3804 21.938 17.6416C21.721 15.3621 20.9118 13.1237 19.5002 11.1784C19.0692 10.5847 18.2131 10.5099 17.678 11.0113Z" fill="white"/>
<path d="M16.7121 27.7357L11.1152 21.7577C10.3691 20.9617 9.03364 21.4645 8.99846 22.5537L8.7302 30.7364C8.70528 31.4796 9.34295 32.0645 10.0818 31.9941C12.3613 31.7772 14.5997 30.968 16.545 29.5563C17.1387 29.1268 17.2134 28.2693 16.7121 27.7357Z" fill="white"/>
<path d="M18.9694 27.287C20.5057 25.4385 21.4614 23.2573 21.8279 20.9968C21.9467 20.2639 21.4043 19.5895 20.661 19.5646L12.4769 19.2964C11.3862 19.2612 10.7984 20.56 11.5431 21.356L17.1399 27.3325C17.6413 27.869 18.5018 27.8514 18.9694 27.287Z" fill="white"/>
</svg>
